PathFileType	4	(X/Y/Z)	C:\Users\israe\Desktop\Doctoral Research\Projects\PhaseIA\OPENSIM_october\ExperimentalData\subject1\100\P1S100W01.trc
DataRate	CameraRate	NumFrames	NumMarkers	Units	OrigDataRate	OrigDataStartFrame	OrigNumFrames
100.000000	100.000000	3	136	mm	100.000000	92	246
Frame#	Time	PELVIS_cgm24O			PELVIS_cgm24A			PELVIS_cgm24L			PELVIS_cgm24P			LFEMUR_cgm24O			LFEMUR_cgm24A			LFEMUR_cgm24L			LFEMUR_cgm24P			LTIBIA_cgm24O			LTIBIA_cgm24A			LTIBIA_cgm24L			LTIBIA_cgm24P			LFOOT_cgm24O			LFOOT_cgm24A			LFOOT_cgm24L			LFOOT_cgm24P			LTOES_cgm24O			LTOES_cgm24A			LTOES_cgm24L			LTOES_cgm24P			RFEMUR_cgm24O			RFEMUR_cgm24A			RFEMUR_cgm24L			RFEMUR_cgm24P			RTIBIA_cgm24O			RTIBIA_cgm24A			RTIBIA_cgm24L			RTIBIA_cgm24P			RFOOT_cgm24O			RFOOT_cgm24A			RFOOT_cgm24L			RFOOT_cgm24P			RTOES_cgm24O			RTOES_cgm24A			RTOES_cgm24L			RTOES_cgm24P			THORAX_cgm24O			THORAX_cgm24A			THORAX_cgm24L			THORAX_cgm24P			LUPPERARM_cgm24O			LUPPERARM_cgm24A			LUPPERARM_cgm24L			LUPPERARM_cgm24P			LFOREARM_cgm24O			LFOREARM_cgm24A			LFOREARM_cgm24L			LFOREARM_cgm24P			LHAND_cgm24O			LHAND_cgm24A			LHAND_cgm24L			LHAND_cgm24P			RUPPERARM_cgm24O			RUPPERARM_cgm24A			RUPPERARM_cgm24L			RUPPERARM_cgm24P			RFOREARM_cgm24O			RFOREARM_cgm24A			RFOREARM_cgm24L			RFOREARM_cgm24P			RHAND_cgm24O			RHAND_cgm24A			RHAND_cgm24L			RHAND_cgm24P			HEAD_cgm24O			HEAD_cgm24A			HEAD_cgm24L			HEAD_cgm24P			LFHD			RFHD			LBHD			RBHD			C7			T10			CLAV			STRN			RBAK			LSHO			LELB			LFRM			LWRA			LWRB			LFIN			RSHO			RELB			RFRM			RWRA			RWRB			RFIN			LASI			RASI			LPSI			RPSI			LTHI			LTHAP			LTHAD			LKNE			LTIB			LTIAP			LTIAD			LANK			LHEE			LTOE			LFMH			LVMH			RTHI			RTHAP			RTHAD			RKNE			RTIB			RTIAP			RTIAD			RANK			RHEE			RTOE			RFMH			RVMH			RPel			LPel			LMEL			RMEL			LHJC_cgm24			RHJC_cgm24			LKJC_cgm24			RKJC_cgm24			LAJC_cgm24			RAJC_cgm24			LFJC_cgm24			RFJC_cgm24			LSJC_cgm24			RSJC_cgm24			LEJC_cgm24			REJC_cgm24			LHO_cgm24			RHO_cgm24			CentreOfMass_cgm24			
		X1	Y1	Z1	X2	Y2	Z2	X3	Y3	Z3	X4	Y4	Z4	X5	Y5	Z5	X6	Y6	Z6	X7	Y7	Z7	X8	Y8	Z8	X9	Y9	Z9	X10	Y10	Z10	X11	Y11	Z11	X12	Y12	Z12	X13	Y13	Z13	X14	Y14	Z14	X15	Y15	Z15	X16	Y16	Z16	X17	Y17	Z17	X18	Y18	Z18	X19	Y19	Z19	X20	Y20	Z20	X21	Y21	Z21	X22	Y22	Z22	X23	Y23	Z23	X24	Y24	Z24	X25	Y25	Z25	X26	Y26	Z26	X27	Y27	Z27	X28	Y28	Z28	X29	Y29	Z29	X30	Y30	Z30	X31	Y31	Z31	X32	Y32	Z32	X33	Y33	Z33	X34	Y34	Z34	X35	Y35	Z35	X36	Y36	Z36	X37	Y37	Z37	X38	Y38	Z38	X39	Y39	Z39	X40	Y40	Z40	X41	Y41	Z41	X42	Y42	Z42	X43	Y43	Z43	X44	Y44	Z44	X45	Y45	Z45	X46	Y46	Z46	X47	Y47	Z47	X48	Y48	Z48	X49	Y49	Z49	X50	Y50	Z50	X51	Y51	Z51	X52	Y52	Z52	X53	Y53	Z53	X54	Y54	Z54	X55	Y55	Z55	X56	Y56	Z56	X57	Y57	Z57	X58	Y58	Z58	X59	Y59	Z59	X60	Y60	Z60	X61	Y61	Z61	X62	Y62	Z62	X63	Y63	Z63	X64	Y64	Z64	X65	Y65	Z65	X66	Y66	Z66	X67	Y67	Z67	X68	Y68	Z68	X69	Y69	Z69	X70	Y70	Z70	X71	Y71	Z71	X72	Y72	Z72	X73	Y73	Z73	X74	Y74	Z74	X75	Y75	Z75	X76	Y76	Z76	X77	Y77	Z77	X78	Y78	Z78	X79	Y79	Z79	X80	Y80	Z80	X81	Y81	Z81	X82	Y82	Z82	X83	Y83	Z83	X84	Y84	Z84	X85	Y85	Z85	X86	Y86	Z86	X87	Y87	Z87	X88	Y88	Z88	X89	Y89	Z89	X90	Y90	Z90	X91	Y91	Z91	X92	Y92	Z92	X93	Y93	Z93	X94	Y94	Z94	X95	Y95	Z95	X96	Y96	Z96	X97	Y97	Z97	X98	Y98	Z98	X99	Y99	Z99	X100	Y100	Z100	X101	Y101	Z101	X102	Y102	Z102	X103	Y103	Z103	X104	Y104	Z104	X105	Y105	Z105	X106	Y106	Z106	X107	Y107	Z107	X108	Y108	Z108	X109	Y109	Z109	X110	Y110	Z110	X111	Y111	Z111	X112	Y112	Z112	X113	Y113	Z113	X114	Y114	Z114	X115	Y115	Z115	X116	Y116	Z116	X117	Y117	Z117	X118	Y118	Z118	X119	Y119	Z119	X120	Y120	Z120	X121	Y121	Z121	X122	Y122	Z122	X123	Y123	Z123	X124	Y124	Z124	X125	Y125	Z125	X126	Y126	Z126	X127	Y127	Z127	X128	Y128	Z128	X129	Y129	Z129	X130	Y130	Z130	X131	Y131	Z131	X132	Y132	Z132	X133	Y133	Z133	X134	Y134	Z134	X135	Y135	Z135	X136	Y136	Z136	

93	0.92	205.2200012207031	905.9710083007813	-218.5440063476562	205.5682220458984	895.8865966796875	-47.17782592773432	376.6270751953125	896.643798828125	-219.4411926269531	214.5837554931641	1077.08349609375	-208.4935302734374	314.2999877929688	504.7249755859375	-84.42340087890622	307.6893615722656	638.7988891601563	313.2135620117188	733.281494140625	528.968017578125	-85.63212585449216	290.9443664550781	901.67724609375	-218.6547546386718	302.822998046875	184.6609954833985	-314.0989990234375	363.9049072265625	-43.77906799316406	1.190765380859372	692.0025634765625	211.0760040283203	-370.3570556640625	314.2999877929688	504.724853515625	-84.4233703613281	301.2439880371094	209.1710052490235	-391.9349975585938	311.3937072753906	398.1779174804688	-270.8848876953125	525.6488037109375	198.2595672607422	-393.7136840820313	305.6264953613281	330.1548156738282	-581.2058715820313	301.9020080566406	133.1920013427735	-271.8200073242188	301.9020080566406	133.1920013427735	-271.8200073242188	301.9020080566406	133.1920013427735	-271.8200073242188	301.9020080566406	133.1920013427735	-271.8200073242188	151.0149993896484	495.2099914550781	-181.8919982910156	234.2561187744141	537.3887329101563	225.4045715332032	559.2748413085938	518.6536254882813	-267.7577514648437	119.4959716796875	910.26416015625	-218.4324340820312	187.7259979248047	100.0309982299805	-234.427001953125	138.4895324707031	43.18340301513671	158.7887573242188	583.3301391601563	129.6269226074219	-180.6127624511719	151.0155029296875	495.2106323242188	-181.8921813964843	195.2209930419922	69.88189697265626	-309.0230102539063	184.0795135498047	295.0928955078125	-318.1227722167969	416.4764099121094	82.54791259765626	-266.4489135742188	238.21923828125	63.06206130981449	-530.4537353515625	174.7559967041016	78.55239868164064	-167.8119964599609	174.7559967041016	78.55239868164064	-167.8119964599609	174.7559967041016	78.55239868164064	-167.8119964599609	174.7559967041016	78.55239868164064	-167.8119964599609	216.0489959716797	1431.170043945313	-176.6699981689452	208.0377655029297	1474.742309570313	293.2241821289064	-255.8086090087891	1423.422607421875	-183.9963226318359	223.0858612060547	961.271484375	-132.9773254394531	452.56298828125	1137.030029296875	-256.2279968261718	462.8349914550781	1164.50732421875	-527.1343994140624	182.6732482910156	1102.093994140625	-270.0049133300781	416.4407958984375	1405.87060546875	-230.329864501953	477.2179870605469	899.2639770507813	-136.2700042724609	504.596923828125	781.7926025390625	-374.7380676269531	212.5301208496094	865.00146484375	-149.7812805175781	452.5832824707031	1136.840698242188	-256.1306762695312	466.1530151367188	833.2930297851563	-111.3099975585937	553.0340576171875	862.5315551757813	4.481437683105521	583.3651123046875	784.9740600585938	-187.0559692382812	489.0411071777344	969.752685546875	-162.9409179687499	-23.90299987792969	1126.170043945313	-286.7229919433593	-23.58779335021973	1161.032592773438	-551.8404541015624	-287.89501953125	1168.401733398438	-281.4834594726562	18.65135955810547	1387.90234375	-252.2550201416015	-57.15919876098633	900.1279907226563	-140.3609924316406	-84.81807708740234	755.6878662109375	-369.7208557128906	-326.1457214355469	943.158935546875	-135.0223541259765	-23.76535034179688	1127.106567382813	-287.3285522460937	-69.03859710693359	833.822021484375	-100.9089965820312	-179.869140625	909.6025390625	-6.91880035400385	49.09202575683594	875.5303955078125	4.759475708007866	-44.09861373901367	973.0269165039063	-183.7357788085937	195.2369995117188	1686.079956054688	-239.1150054931639	192.9943084716797	1699.103149414063	-187.2473754882811	248.3688354492188	1692.516357421875	-238.4337158203124	189.1656341552734	1737.595458984375	-252.3122558593749	263.7696533203125	1708.476806640625	-190.2048187255858	121.9493865966797	1692.884765625	-193.0584869384764	287.7579956054688	1683.15283203125	-286.0873413085936	107.4713287353516	1659.811889648438	-287.1087341308593	214.6481018066406	1516.688598632813	-300.2403869628905	223.0043334960938	1159.826782226563	-337.6787414550781	215.9731903076172	1431.5859375	-172.1895294189452	215.3878173828125	1269.4765625	-86.49478149414055	101.4448776245117	1359.897705078125	-359.3882446289062	415.783447265625	1458.42529296875	-235.0275268554687	484.9192810058594	1139.674926757813	-238.475357055664	482.0864868164063	1017.665649414063	-151.241958618164	461.1660461425781	902.8409423828125	-117.3016052246093	498.7454528808594	899.47900390625	-149.1853027343749	474.6832885742188	836.1640625	-99.94089508056635	15.75012493133545	1437.012329101563	-257.4810180664061	-58.18122482299805	1129.982177734375	-273.3253784179687	-71.60665130615234	1013.449584960938	-182.5583496093749	-38.43394470214844	910.0795288085938	-118.464744567871	-81.93669891357422	894.517333984375	-157.2037048339843	-78.84423065185547	840.5267333984375	-92.59334564208979	329.0174560546875	975.6439819335938	-161.9860229492187	91.81026458740234	989.2987060546875	-157.7927856445312	249.6262664794922	990.6245727539063	-338.8942565917968	171.1418914794922	995.864013671875	-336.4494018554687	385.4493103027344	676.4821166992188	-140.2979888916015	323.3051147460938	787.3242797851563	-77.75807189941402	324.8535766601563	687.29345703125	-44.79205322265621	364.88427734375	507.8796081542969	-95.59655761718747	368.1971740722656	359.1224060058594	-187.4138031005859	316.7080078125	371.2828063964844	-112.2279434204101	315.5892639160156	292.3669738769531	-179.1250457763672	340.4306030273438	185.2535858154297	-321.5212707519531	301.0834045410156	210.0011749267578	-395.270263671875	304.5544128417969	121.5971298217774	-247.2905426025391	275.7829284667969	77.28533935546876	-219.4110260009766	362.8565063476563	72.79860687255861	-257.0038146972656	42.95590972900391	724.5770874023438	-187.7610473632812	106.5221176147461	796.164794921875	-110.5367660522461	126.3733520507813	702.6486206054688	-108.7612152099609	100.6938018798828	503.3797912597656	-174.7245483398437	113.3807678222656	280.6227722167969	-195.6312103271484	152.8032531738281	360.29931640625	-140.9490661621093	164.7637481689453	224.6300659179688	-166.2669067382813	147.2839508056641	99.62842559814455	-240.4381561279297	195.6900329589844	72.38218688964845	-305.5127868652344	170.4947662353516	78.8279495239258	-134.3067779541016	198.2334899902344	54.88368225097657	-91.83735656738281	109.2076187133789	48.89548110961915	-133.5596466064453	39.56862640380859	1011.859069824219	-258.7586059570312	382.6016845703125	997.1998291015625	-251.7949218749999	419.6375122070313	1127.102172851563	-249.9412689208984	4.531920433044434	1110.258666992188	-287.7289733886718	290.9440002441406	901.677001953125	-218.6549987792968	119.4960021972656	910.2639770507813	-218.4320068359374	314.2999877929688	504.7249755859375	-84.42340087890622	151.0149993896484	495.2099914550781	-181.8919982910156	302.822998046875	184.6609954833985	-314.0989990234375	187.7259979248047	100.0309982299805	-234.427001953125	301.9020080566406	133.1920013427735	-271.8200073242188	174.7559967041016	78.55239868164064	-167.8119964599609	414.760986328125	1418.380004882813	-229.1249999999999	20.17499923706055	1397.27001953125	-251.0209960937499	452.56298828125	1137.030029296875	-256.2279968261718	-23.90299987792969	1126.170043945313	-286.7229919433593	466.1530151367188	833.2930297851563	-111.3099975585937	-69.03859710693359	833.822021484375	-100.9089965820312	219.5760040283203	1012.409912109375	-221.2050018310546	
94	0.93	205.8269958496094	907.2030029296875	-206.6940002441406	205.3632659912109	897.050048828125	-35.33212280273432	377.2965393066406	899.05517578125	-206.7127227783203	213.9616088867188	1078.371704101563	-196.5304718017578	313.614990234375	508.4049682617188	-66.54589843749997	300.5471496582031	647.7017822265625	329.1310729980469	732.5161743164063	533.5355224609375	-61.55816650390621	291.5774536132813	903.499267578125	-206.3654327392578	302.9840087890625	175.1730041503907	-276.7049865722656	366.0641479492188	-33.78990173339844	51.43954467773438	691.8687744140625	199.9586791992188	-335.6778259277344	313.6152038574219	508.4050903320313	-66.54597473144528	300.9150085449219	194.718002319336	-355.9219970703125	310.1562805175781	391.06103515625	-247.0929565429687	525.392578125	185.64697265625	-358.6182250976563	302.9526062011719	303.5613403320313	-552.4638671875	302.8089904785156	126.4660034179688	-231.2630004882813	302.8089904785156	126.4660034179688	-231.2630004882813	302.8089904785156	126.4660034179688	-231.2630004882813	302.8089904785156	126.4660034179688	-231.2630004882813	150.906005859375	495.1619873046875	-178.6679992675781	231.0961151123047	528.981201171875	230.0182189941407	559.82861328125	519.8746948242188	-260.9494934082031	120.0756988525391	910.9073486328125	-207.0220336914062	187.8399963378906	100.4020004272461	-234.1150054931641	136.4492797851563	40.46672439575195	158.3659210205078	583.149169921875	129.4934844970703	-177.9114379882813	150.9056091308594	495.1626281738281	-178.6677093505859	195.2550048828125	70.5394973754883	-308.8340148925781	184.1355438232422	295.7798461914063	-317.2049255371094	416.4407958984375	83.05606079101564	-265.8559265136719	238.6155700683594	64.45256805419925	-530.2154541015625	174.7610015869141	78.70310211181642	-167.593994140625	174.7610015869141	78.70310211181642	-167.593994140625	174.7610015869141	78.70310211181642	-167.593994140625	174.7610015869141	78.70310211181642	-167.593994140625	216.6920013427734	1432.089965820313	-163.8269958496093	209.4944305419922	1474.82421875	306.1572570800782	-255.1850738525391	1424.87646484375	-170.3976440429687	223.2800903320313	962.10595703125	-120.9918975830078	452.8729858398438	1138.25	-246.9989929199218	460.7611389160156	1168.460693359375	-517.6942138671874	182.875732421875	1103.406494140625	-258.7554931640624	416.9555969238281	1406.809204101563	-218.0733642578124	478.7000122070313	898.7849731445313	-130.4149932861328	503.9063415527344	784.5319213867188	-370.6795043945312	213.9067077636719	864.6132202148438	-141.9449615478515	452.9067993164063	1137.939086914063	-246.8460083007812	467.7789916992188	832.4019775390625	-106.3610000610351	555.6143798828125	859.8107299804688	9.157653808593803	584.3389892578125	785.17333984375	-183.7824096679687	490.3524780273438	969.6210327148438	-156.0824584960937	-25.05620002746582	1127.619995117188	-271.1910095214843	-28.0936107635498	1160.926147460938	-536.4912719726561	-288.7759704589844	1171.012939453125	-262.7240905761718	19.05057716369629	1389.365234375	-238.8361816406249	-56.9827995300293	904.2080078125	-120.640998840332	-88.62423706054688	756.10302734375	-347.1308593749999	-325.6919250488281	948.4222412109375	-112.0137252807617	-24.91801834106445	1128.58251953125	-271.8423156738281	-68.67739868164063	838.8109741210938	-79.80609893798822	-178.3797302246094	916.8099365234375	13.69156646728521	50.57673645019531	882.2350463867188	23.89085388183599	-44.09881591796875	976.254638671875	-165.6279296874999	195.802001953125	1686.97998046875	-226.0650024414061	193.5726470947266	1699.988891601563	-174.1932220458983	248.9335784912109	1693.419799804688	-225.3965301513671	189.7235565185547	1738.498657226563	-239.246612548828	264.3388061523438	1709.345703125	-177.2257995605468	122.5382080078125	1693.763427734375	-180.0061187744139	288.3115844726563	1684.075439453125	-273.0357666015624	108.0194320678711	1660.732666015625	-273.9921874999999	215.1218414306641	1517.666259765625	-287.2382507324218	223.0848236083984	1160.927490234375	-325.3298339843749	216.6233520507813	1432.500122070313	-159.3459167480468	215.9341430664063	1270.387573242188	-73.96588897705071	101.3207015991211	1361.340087890625	-346.2613525390624	416.3292846679688	1459.308471679688	-222.5695343017577	485.3317565917969	1140.697021484375	-229.4093017578124	483.363525390625	1017.474853515625	-143.7597045898437	462.8156433105469	902.080322265625	-111.2499465942382	500.1101684570313	899.20361328125	-143.5243072509765	476.4027404785156	835.0930786132813	-95.0188369750976	16.24885749816895	1438.438232421875	-244.057632446289	-59.21767807006836	1131.690185546875	-257.5745849609374	-71.74733734130859	1016.666015625	-164.6969909667968	-38.0451774597168	914.531982421875	-99.15276336669916	-81.91633605957031	898.3176879882813	-137.0900573730468	-78.38314056396484	845.71240234375	-71.53401184082026	328.7793579101563	977.0717163085938	-149.7016143798828	91.48131561279297	989.8593139648438	-146.4622192382812	250.1747436523438	991.9357299804688	-326.9234924316406	171.7941589355469	997.1503295898438	-324.7187499999999	385.3191223144531	679.954345703125	-123.2064666748046	322.3460083007813	791.4675903320313	-63.11443710327143	323.4794006347656	691.9879150390625	-28.74851989746089	364.0673217773438	511.2142639160156	-76.72977447509763	367.8641967773438	357.4632568359375	-160.748062133789	316.3662414550781	373.7496032714844	-86.52645111083982	315.6539001464844	290.8923034667969	-148.4204864501953	340.6497497558594	175.3087310791016	-284.5399780273438	300.7007446289063	195.0680541992188	-359.7958679199219	305.6288757324219	116.2431259155274	-206.1082611083984	277.4223937988281	73.43077087402345	-175.3131713867188	364.3168029785156	67.25894165039064	-212.9857177734375	43.11770248413086	724.716796875	-180.5177307128906	105.933967590332	795.1642456054688	-101.6351318359375	125.8619232177734	701.282958984375	-101.516845703125	100.5461959838867	503.1702270507813	-171.572280883789	113.4909133911133	280.6882019042969	-194.4783020019531	152.4424743652344	359.8433532714844	-138.9242095947265	164.5964965820313	224.3756713867188	-165.0885162353516	147.4164428710938	99.82347869873048	-240.2080383300781	195.7154998779297	72.67028808593751	-305.5225219726563	170.4832458496094	78.65270233154298	-134.1001281738281	198.1479949951172	54.54670333862305	-91.77576446533203	109.141975402832	48.8258171081543	-133.4541320800781	39.75733184814453	1012.636596679688	-247.4750213623046	382.8399353027344	999.1522827148438	-239.2824249267578	419.9675903320313	1128.281005859375	-240.4757690429687	3.316024780273438	1111.55615234375	-272.4282226562499	291.5780029296875	903.5	-206.3659973144531	120.0759963989258	910.906982421875	-207.0220031738281	313.614990234375	508.4049682617188	-66.54589843749997	150.906005859375	495.1619873046875	-178.6679992675781	302.9840087890625	175.1730041503907	-276.7049865722656	187.8399963378906	100.4020004272461	-234.1150054931641	302.8089904785156	126.4660034179688	-231.2630004882813	174.7610015869141	78.70310211181642	-167.593994140625	415.2919921875	1419.25	-216.7339935302734	20.62170028686523	1398.680053710938	-237.6840057373046	452.8729858398438	1138.25	-246.9989929199218	-25.05620002746582	1127.619995117188	-271.1910095214843	467.7789916992188	832.4019775390625	-106.3610000610351	-68.67739868164063	838.8109741210938	-79.80609893798822	219.7319946289063	1013.239990234375	-208.6829986572265	
95	0.9400000000000001	206.4349975585938	908.1610107421875	-194.8309936523437	205.1937561035156	897.9107666015625	-23.47879028320307	377.9499206542969	901.0791625976563	-194.0122070312499	213.4551391601563	1079.371337890625	-184.5383911132812	312.9020080566406	511.541015625	-49.50410079956052	293.5105285644531	655.2430419921875	344.3338928222657	731.6265258789063	537.6442260742188	-38.41172409057614	292.2044067382813	904.9910888671875	-194.0837097167968	303.1210021972656	165.8730010986328	-238.5599975585938	367.8706970214844	-22.07989501953126	101.7408142089844	691.7535400390625	188.4879150390625	-300.0153503417969	312.9021301269531	511.5400390625	-49.5043029785156	300.5820007324219	180.2969970703125	-318.85400390625	308.9869995117188	383.26708984375	-222.8735046386718	525.1017456054688	172.7110443115235	-322.47314453125	300.5531921386719	276.3457031250001	-521.9657592773438	303.6050109863281	120.1750030517578	-190.0950012207031	303.6050109863281	120.1750030517578	-190.0950012207031	303.6050109863281	120.1750030517578	-190.0950012207031	303.6050109863281	120.1750030517578	-190.0950012207031	150.8410034179688	495.0669860839844	-175.3009948730468	228.0227355957031	520.627197265625	234.5627136230469	560.3908081054688	520.9200439453125	-254.035888671875	120.6658096313477	911.3323974609375	-195.578140258789	187.9969940185547	100.7679977416992	-233.7960052490234	134.6280822753906	37.62714385986327	157.9175262451172	583.023193359375	129.3253936767578	-175.3725433349609	150.8407897949219	495.0676574707031	-175.3006286621093	195.3399963378906	71.20069885253908	-308.6400146484375	184.2535552978516	296.4697875976563	-316.2475280761719	416.4614868164063	83.54724121093751	-265.2832641601563	239.0359497070313	65.87653350830081	-529.9752197265625	174.8150024414063	78.83979797363283	-167.3699951171875	174.8150024414063	78.83979797363283	-167.3699951171875	174.8150024414063	78.83979797363283	-167.3699951171875	174.8150024414063	78.83979797363283	-167.3699951171875	217.3659973144531	1432.739990234375	-150.9680023193359	210.8976440429688	1474.633178710938	319.1025390625001	-254.5277099609375	1426.0537109375	-156.8654785156249	223.5017547607422	962.6724853515625	-108.9906387329101	453.2200012207031	1139.2099609375	-237.6979980468749	458.6556396484375	1172.092651367188	-508.1420593261718	183.1347351074219	1104.404418945313	-247.3583526611328	417.5100708007813	1407.460083007813	-205.7997741699218	480.2219848632813	898.219970703125	-124.3570022583007	503.2046508789063	787.0205078125	-366.2715148925781	215.3423461914063	864.0853881835938	-133.8309783935546	453.26416015625	1138.814331054688	-237.510757446289	469.4670104980469	831.47998046875	-101.1389999389648	558.3294067382813	857.2090454101563	13.97987365722662	585.3140869140625	785.29296875	-180.2407073974609	491.6885070800781	969.377197265625	-149.1121826171874	-26.17840003967285	1128.819946289063	-255.6529998779296	-32.4876708984375	1160.57568359375	-521.0856933593749	-289.5734252929688	1173.443603515625	-244.053497314453	19.49447059631348	1390.55078125	-225.425796508789	-56.75910186767578	908.10498046875	-100.9789962768554	-92.30400085449219	756.396728515625	-324.4853515624999	-325.1373901367188	953.5729370117188	-89.16001892089838	-26.04131507873535	1129.8056640625	-256.3467712402343	-68.2384033203125	843.6389770507813	-58.78649902343745	-176.8247985839844	923.814453125	34.17128753662115	52.11908721923828	888.75537109375	42.89362335205084	-44.086181640625	979.2733154296875	-147.5573425292968	196.4210052490234	1687.619995117188	-213.0070037841796	194.2067260742188	1700.616455078125	-161.1314392089843	249.5532684326172	1694.055541992188	-212.3513793945311	190.3429412841797	1739.142456054688	-226.1743927001952	264.9647827148438	1709.950439453125	-164.2422637939452	123.1821212768555	1694.386962890625	-166.9389495849608	288.9187927246094	1684.734130859375	-259.9797973632811	108.6188583374023	1661.39892578125	-260.8693847656249	215.6439819335938	1518.3837890625	-274.2278442382811	223.2286224365234	1161.762939453125	-312.9711914062499	217.3038482666016	1433.142333984375	-146.4855499267577	216.4912261962891	1271.011962890625	-61.41891860961906	101.2558441162109	1362.495727539063	-333.1311645507812	416.9130249023438	1459.9228515625	-210.0983428955077	485.7939453125	1141.479736328125	-220.2980194091796	484.6932067871094	1017.148193359375	-136.1611633300781	464.5198669433594	901.24853515625	-104.9978103637695	501.5059204101563	898.8290405273438	-137.6662902832031	478.1923522949219	834.0064697265625	-89.83628845214838	16.79057121276855	1439.587890625	-230.643569946289	-60.22163772583008	1133.15869140625	-241.8258056640624	-71.84951019287109	1019.67529296875	-146.8746490478515	-37.61366271972656	918.7930908203125	-79.90574645996088	-81.84445190429688	901.9434814453125	-117.0286636352538	-77.84543609619141	850.732177734375	-50.56215286254878	328.595458984375	978.189208984375	-137.3919830322265	91.20016479492188	990.1737060546875	-135.0779418945312	250.7517242431641	992.9590454101563	-314.9204406738281	172.4841613769531	998.1677856445313	-312.9494018554687	385.1794738769531	682.9623413085938	-106.652099609375	321.3865661621094	795.0121459960938	-48.81214523315425	322.0674133300781	696.022705078125	-13.28242397308345	363.2346801757813	514.0449829101563	-58.64245986938474	367.4993896484375	355.5426940917969	-134.2220306396484	315.9563903808594	376.0914001464844	-61.3164596557617	315.6513671875	289.4461975097656	-117.7271270751953	340.8336486816406	165.5204162597657	-246.7322998046875	300.3232116699219	180.0882263183594	-323.1293029785156	306.5782165527344	111.404167175293	-164.4168853759766	278.9083557128906	70.32913970947267	-130.7139282226563	365.6364440917969	62.41776657104493	-168.3760986328125	43.3266716003418	724.7586059570313	-173.1871032714843	105.3977813720703	794.0300903320313	-92.67102050781246	125.3825073242188	699.8298950195313	-94.19050598144527	100.4385528564453	502.933349609375	-168.3197021484375	113.6460876464844	280.7389221191406	-193.2249145507812	152.1460113525391	359.3705139160156	-136.8228759765625	164.4958038330078	224.0970458984375	-163.8451232910156	147.6006317138672	100.0233764648438	-239.9563293457031	195.7821807861328	72.95427703857423	-305.5174865722656	170.5240325927734	78.46412658691408	-133.9149017333984	198.0858764648438	54.20791625976563	-91.69683074951172	109.1158752441406	48.77098464965821	-133.3436584472656	39.99188613891602	1013.173706054688	-236.1465759277343	383.1176452636719	1000.761779785156	-226.7492523193359	420.3497314453125	1129.201049804688	-230.944351196289	2.123027801513672	1112.59521484375	-257.1112365722656	292.2049865722656	904.9910278320313	-194.083999633789	120.6660003662109	911.3319702148438	-195.5780029296874	312.9020080566406	511.541015625	-49.50410079956052	150.8410034179688	495.0669860839844	-175.3009948730468	303.1210021972656	165.8730010986328	-238.5599975585938	187.9969940185547	100.7679977416992	-233.7960052490234	303.6050109863281	120.1750030517578	-190.0950012207031	174.8150024414063	78.83979797363283	-167.3699951171875	415.8609924316406	1419.849975585938	-204.3280029296874	21.11199951171875	1399.819946289063	-224.354995727539	453.2200012207031	1139.2099609375	-237.6979980468749	-26.17840003967285	1128.819946289063	-255.6529998779296	469.4670104980469	831.47998046875	-101.1389999389648	-68.2384033203125	843.6389770507813	-58.78649902343745	219.9259948730469	1013.820068359375	-196.1660003662109	
